<?xml version="1.0" standalone="no"?>
<!DOCTYPE svg PUBLIC "-//W3C//DTD SVG 20010904//EN"
 "http://www.w3.org/TR/2001/REC-SVG-20010904/DTD/svg10.dtd">
<svg version="1.0" xmlns="http://www.w3.org/2000/svg"
 width="256.000000pt" height="64.000000pt" viewBox="0 0 256.000000 64.000000"
 preserveAspectRatio="xMidYMid meet">

<g transform="translate(0.000000,64.000000) scale(0.100000,-0.100000)"
fill="#000000" stroke="none">
<path d="M0 320 l1 -320 154 0 153 0 7 30 c4 16 11 30 16 30 5 0 9 13 9 29 0
17 5 33 10 36 6 3 10 21 10 38 0 20 8 39 19 49 19 16 20 15 24 -30 2 -26 4 -4
6 48 1 57 7 102 14 111 10 13 11 -5 8 -93 -3 -104 -2 -110 18 -115 19 -5 21
-13 21 -69 l0 -64 800 0 800 0 20 33 c11 17 20 41 20 52 0 33 49 174 50 143 0
-16 5 -28 10 -28 6 0 1 -9 -10 -20 -12 -12 -20 -33 -20 -55 0 -20 -9 -53 -20
-75 -11 -22 -20 -42 -20 -45 0 -3 104 -5 230 -5 l230 0 0 323 c-1 286 -2 319
-15 297 l-15 -25 -6 23 c-9 32 -31 27 -39 -8 -4 -16 -11 -30 -16 -30 -12 0
-12 -37 0 -45 5 -3 18 6 29 20 27 34 35 11 12 -35 -10 -19 -18 -38 -18 -43 -4
-36 -17 -87 -30 -109 -27 -47 -39 -41 -46 20 -8 69 -26 132 -38 132 -4 0 -8 5
-8 11 0 16 -56 69 -73 69 -7 0 -13 -10 -14 -21 -1 -12 -6 -26 -11 -31 -5 -5
-7 12 -4 41 l4 51 -450 0 c-351 0 -451 -3 -455 -13 -4 -9 -6 -9 -6 1 -1 9 -66
12 -290 12 -222 0 -291 -3 -294 -12 -4 -10 -6 -10 -6 0 -1 9 -33 12 -128 11
-71 0 -122 -3 -115 -6 9 -3 10 -9 2 -18 -5 -6 -17 -30 -25 -51 l-15 -39 5 42
c3 23 8 48 11 57 6 14 -20 16 -250 16 l-257 0 1 -320z m167 263 c-3 -10 -5 -4
-5 12 0 17 2 24 5 18 2 -7 2 -21 0 -30z m1775 -5 c-7 -7 -12 -21 -12 -32 0
-10 -3 -17 -6 -13 -4 3 -3 23 0 43 6 27 10 34 19 25 8 -8 8 -14 -1 -23z m-832
-6 c0 -17 -9 -37 -21 -48 l-21 -19 7 40 c9 46 13 55 26 55 5 0 9 -13 9 -28z
m230 -7 c0 -9 -9 -34 -21 -56 -17 -33 -23 -38 -35 -29 -14 13 -19 56 -8 84 8
21 64 22 64 1z m394 -25 c17 0 26 -5 26 -16 0 -32 -50 -59 -65 -34 -3 6 -15
10 -26 10 -22 0 -24 18 -7 56 l12 26 17 -21 c10 -12 29 -21 43 -21z m-1595
-20 c1 18 4 21 10 11 11 -16 3 -47 -15 -62 -12 -9 -14 -4 -13 32 1 37 2 40 9
19 l8 -25 1 25z m581 -59 c0 -31 -5 -62 -11 -68 -6 -6 -15 -26 -19 -45 -6 -25
-8 -14 -9 49 l-1 82 -42 5 c-24 3 -70 7 -103 9 -44 1 -61 6 -63 17 -2 13 16
15 123 12 l125 -3 0 -58z m1190 13 c0 -3 -9 -19 -21 -35 -11 -16 -17 -33 -14
-39 9 -15 -5 -51 -17 -44 -6 4 -7 27 -3 62 10 77 13 84 36 71 10 -5 19 -12 19
-15z m-220 -34 c0 -11 -4 -20 -10 -20 -5 0 -10 9 -10 20 0 11 5 20 10 20 6 0
10 -9 10 -20z m-393 -32 c-3 -8 -6 -5 -6 6 -1 11 2 17 5 13 3 -3 4 -12 1 -19z
m340 -10 c-3 -7 -5 -2 -5 12 0 14 2 19 5 13 2 -7 2 -19 0 -25z m210 -105 c-3
-10 -5 -2 -5 17 0 19 2 27 5 18 2 -10 2 -26 0 -35z m-1187 -10 c0 -21 -20 -55
-20 -35 0 6 -7 12 -15 12 -8 0 -15 5 -15 10 0 6 7 10 15 10 8 0 15 5 15 10 0
6 5 10 10 10 6 0 10 -8 10 -17z m-263 -30 c-3 -10 -5 -4 -5 12 0 17 2 24 5 18
2 -7 2 -21 0 -30z m611 28 c16 -10 13 -42 -4 -48 -7 -2 -14 10 -16 27 -5 32
-1 35 20 21z m822 -38 c-1 -19 -22 -53 -34 -53 -8 0 -8 55 1 63 13 13 33 7 33
-10z m-45 -102 c-3 -12 -12 -21 -19 -21 -13 0 -43 28 -35 33 2 1 13 7 24 13
25 15 39 3 30 -25z m-578 7 c-3 -8 -6 -5 -6 6 -1 11 2 17 5 13 3 -3 4 -12 1
-19z"/>
<path d="M370 153 c0 -10 -3 -35 -6 -55 -5 -31 -4 -38 10 -38 13 0 16 10 16
49 0 28 -4 53 -10 56 -5 3 -10 -2 -10 -12z"/>
</g>
</svg>
